<svg width="16" height="16" viewBox="0 0 16 16" fill="none" xmlns="http://www.w3.org/2000/svg">
<path d="M1.01246 13.8905L1.47236 10.741C1.50039 10.5351 1.59434 10.3437 1.74133 10.1961L10.6522 1.28412C10.7675 1.16725 10.9111 1.0821 11.0691 1.03689C11.227 0.991684 11.394 0.98796 11.5538 1.02608C12.3719 1.25193 13.1133 1.69492 13.6995 2.30798C14.3116 2.89743 14.7521 3.64178 14.9739 4.46162C15.0121 4.62124 15.0083 4.788 14.9631 4.94575C14.9178 5.10351 14.8325 5.24693 14.7155 5.36213L5.79482 14.2628C5.64686 14.4092 5.45502 14.5033 5.24855 14.5306L2.09592 14.99C1.94699 15.0117 1.79505 14.998 1.6524 14.9501C1.50975 14.9022 1.38042 14.8214 1.27489 14.7142C1.16936 14.607 1.0906 14.4765 1.04501 14.3333C0.999412 14.19 0.988262 14.0381 1.01246 13.8897M8.96639 2.97919L13.0297 7.03753" stroke="#F5F5F5" stroke-width="1.5" stroke-linecap="round" stroke-linejoin="round"/>
</svg>
